<svg xmlns="http://www.w3.org/2000/svg" viewBox="0 0 800 600"><rect width="800" height="600" fill="#0d1b2e"/><g stroke="#14263f" stroke-width="2"><path d="M90 0v600M180 0v600M270 0v600M360 0v600M450 0v600M540 0v600M630 0v600M720 0v600"/></g><circle cx="640" cy="300" r="190" fill="none" stroke="#b8955a" stroke-opacity=".4"/><circle cx="640" cy="300" r="140" fill="none" stroke="#b8955a" stroke-opacity=".25"/><path d="M640 190v210M580 400h120M600 210h80M560 250l40 70h-80zM720 250l40 70h-80z" stroke="#d4b47d" stroke-width="5" fill="none" stroke-linecap="round" stroke-linejoin="round"/><text x="60" y="290" font-family="Georgia,serif" font-size="54" font-weight="600" fill="#fff">Barros &amp;</text><text x="60" y="352" font-family="Georgia,serif" font-size="54" font-weight="600" fill="#fff">Associados</text><rect x="62" y="380" width="60" height="2" fill="#b8955a"/><text x="62" y="424" font-family="Arial" font-size="16" letter-spacing="7" fill="#d4b47d">SOCIEDADE DE ADVOGADOS</text></svg>
